<?xml version="1.0" encoding="utf-8"?>
<!-- Generator: Adobe Illustrator 19.2.0, SVG Export Plug-In . SVG Version: 6.00 Build 0)  -->
<svg version="1.1" id="Layer_1" xmlns="http://www.w3.org/2000/svg" xmlns:xlink="http://www.w3.org/1999/xlink" x="0px" y="0px"
	 viewBox="0 0 250 250" style="enable-background:new 0 0 250 250;" xml:space="preserve">
<style type="text/css">
	.st0{fill:none;stroke:#354D1B;stroke-width:0.7087;stroke-linecap:square;stroke-miterlimit:10;}
</style>
<g transform="matrix(.99993 .012084 -.012084 .99993 1.5196 -1.5013)">
	<g transform="matrix(.78558 .020269 -.020269 .78558 -209.84 44.075)">
		<g transform="matrix(-3.8875 -9.4147 9.4147 -3.8875 1532 4349.8)">
			<g transform="matrix(-.041417 -5.072e-18 5.072e-18 -.041417 442.03 85.921)">
				<path class="st0" d="M103.6,638C74.7,679.2,62.5,726.2,66,769c3.6,42.7,22.9,81.2,57.2,105.2c34.3,24,26-128.5-14.1-143.8
					c-74.4-31.7,298.2-217.4,242.7,81.4c19.6-28,31.9-58.1,36.6-88.1s1.6-60-9.4-87.8"/>
				<path class="st0" d="M587.4,638c28.9,41.2,41.1,88.3,37.5,131s-22.9,81.2-57.2,105.2s-26-128.5,14.1-143.8
					c74.4-31.7-298.2-217.4-242.7,81.4c-19.6-28-31.9-58.1-36.6-88.1s-1.6-60,9.4-87.8"/>
			</g>
			<g transform="matrix(.041417 2.0288e-17 -2.0288e-17 .041417 413.41 32.903)">
				<path class="st0" d="M103.6,637.9c-28.9,41.2-41.1,88.3-37.5,131c3.6,42.7,22.9,81.2,57.2,105.2s26-128.5-14.1-143.8
					c-74.4-31.7,298.2-217.4,242.7,81.4c19.6-28,31.9-58.1,36.6-88.1s1.6-60-9.4-87.8"/>
				<path class="st0" d="M587.4,637.9c28.9,41.2,41.1,88.3,37.5,131s-22.9,81.2-57.2,105.2s-26-128.5,14.1-143.8
					c74.4-31.7-298.2-217.4-242.7,81.4c-19.6-28-31.9-58.1-36.6-88.1s-1.6-60,9.4-87.8"/>
			</g>
			<g transform="matrix(-7.608e-18 .041417 -.041417 -7.608e-18 454.23 45.102)">
				<path class="st0" d="M103.6,638C74.7,679.2,62.5,726.2,66,769c3.6,42.7,22.9,81.2,57.2,105.2s26-128.5-14.1-143.8
					c-74.4-31.7,298.2-217.4,242.7,81.4c19.6-28,31.9-58.1,36.6-88.1s1.6-60-9.4-87.8"/>
				<path class="st0" d="M587.4,638c28.9,41.2,41.1,88.3,37.5,131c-3.6,42.7-22.9,81.2-57.2,105.2s-26-128.5,14.1-143.8
					c74.4-31.7-298.2-217.4-242.7,81.4c-19.6-28-31.9-58.1-36.6-88.1s-1.6-60,9.4-87.8"/>
			</g>
			<g transform="matrix(2.2824e-17 -.041417 .041417 2.2824e-17 401.21 73.721)">
				<path class="st0" d="M103.6,637.9c-28.9,41.2-41.1,88.3-37.5,131c3.6,42.7,22.9,81.2,57.2,105.2s26-128.5-14.1-143.8
					c-74.4-31.7,298.2-217.4,242.7,81.4c19.6-28,31.9-58.1,36.6-88.1s1.6-60-9.4-87.8"/>
				<path class="st0" d="M587.4,637.9c28.9,41.2,41.1,88.3,37.5,131c-3.6,42.7-22.9,81.2-57.2,105.2s-26-128.5,14.1-143.8
					c74.4-31.7-298.2-217.4-242.7,81.4c-19.6-28-31.9-58.1-36.6-88.1s-1.6-60,9.4-87.8"/>
			</g>
		</g>
		<g transform="matrix(-9.4698 -3.7512 3.7512 -9.4698 4256.2 2259)">
			<g transform="matrix(-.041417 -5.072e-18 5.072e-18 -.041417 442.03 85.921)">
				<path class="st0" d="M103.6,638C74.7,679.2,62.5,726.2,66,769c3.6,42.7,22.9,81.2,57.2,105.2s26-128.5-14.1-143.8
					c-74.4-31.7,298.2-217.4,242.7,81.4c19.6-28,31.9-58.1,36.6-88.1s1.6-60-9.4-87.8"/>
				<path class="st0" d="M587.4,638c28.9,41.2,41.1,88.3,37.5,131s-22.9,81.2-57.2,105.2s-26-128.5,14.1-143.8
					c74.4-31.7-298.2-217.4-242.7,81.4c-19.6-28-31.9-58.1-36.6-88.1s-1.6-60,9.4-87.8"/>
			</g>
			<g transform="matrix(.041417 2.0288e-17 -2.0288e-17 .041417 413.41 32.903)">
				<path class="st0" d="M103.6,637.9c-28.9,41.2-41.1,88.3-37.5,131c3.6,42.7,22.9,81.2,57.2,105.2s26-128.5-14.1-143.8
					c-74.4-31.7,298.2-217.4,242.7,81.4c19.6-28,31.9-58.1,36.6-88.1s1.6-60-9.4-87.8"/>
				<path class="st0" d="M587.4,637.9c28.9,41.2,41.1,88.3,37.5,131s-22.9,81.2-57.2,105.2s-26-128.5,14.1-143.8
					c74.4-31.7-298.2-217.4-242.7,81.4c-19.6-28-31.9-58.1-36.6-88.1s-1.6-60,9.4-87.8"/>
			</g>
			<g transform="matrix(-7.608e-18 .041417 -.041417 -7.608e-18 454.23 45.102)">
				<path class="st0" d="M103.6,638C74.7,679.2,62.5,726.2,66,769c3.6,42.7,22.9,81.2,57.2,105.2s26-128.5-14.1-143.8
					c-74.4-31.7,298.2-217.4,242.7,81.4c19.6-28,31.9-58.1,36.6-88.1s1.6-60-9.4-87.8"/>
				<path class="st0" d="M587.4,638c28.9,41.2,41.1,88.3,37.5,131s-22.9,81.2-57.2,105.2s-26-128.5,14.1-143.8
					c74.4-31.7-298.2-217.4-242.7,81.4c-19.6-28-31.9-58.1-36.6-88.1s-1.6-60,9.4-87.8"/>
			</g>
			<g transform="matrix(2.2824e-17 -.041417 .041417 2.2824e-17 401.21 73.721)">
				<path class="st0" d="M103.6,638C74.7,679.2,62.5,726.2,66,769s22.9,81.2,57.2,105.2s26-128.5-14.1-143.8
					c-74.4-31.7,298.2-217.4,242.7,81.4c19.6-28,31.9-58.1,36.6-88.1s1.6-60-9.4-87.8"/>
				<path class="st0" d="M587.4,638c28.9,41.2,41.1,88.3,37.5,131s-22.9,81.2-57.2,105.2s-26-128.5,14.1-143.8
					c74.4-31.7-298.2-217.4-242.7,81.4c-19.6-28-31.9-58.1-36.6-88.1s-1.6-60,9.4-87.8"/>
			</g>
		</g>
	</g>
	<g transform="matrix(.72776 .29648 -.29648 .72776 -159.67 -68.997)">
		<g transform="matrix(-3.8875 -9.4147 9.4147 -3.8875 1532 4349.8)">
			<g transform="matrix(-.041417 -5.072e-18 5.072e-18 -.041417 442.03 85.921)">
				<path class="st0" d="M103.6,638C74.7,679.2,62.5,726.2,66,769c3.6,42.7,22.9,81.2,57.2,105.2s26-128.5-14.1-143.8
					c-74.4-31.7,298.2-217.4,242.7,81.4c19.6-28,31.9-58.1,36.6-88.1c4.6-30,1.6-60-9.4-87.8"/>
				<path class="st0" d="M587.4,638c28.9,41.2,41.1,88.3,37.5,131s-22.9,81.2-57.2,105.2s-26-128.5,14.1-143.8
					c74.4-31.7-298.2-217.4-242.7,81.4c-19.6-28-31.9-58.1-36.6-88.1s-1.6-60,9.4-87.8"/>
			</g>
			<g transform="matrix(.041417 2.0288e-17 -2.0288e-17 .041417 413.41 32.903)">
				<path class="st0" d="M103.6,637.9c-28.9,41.2-41.1,88.3-37.5,131c3.6,42.7,22.9,81.2,57.2,105.2s26-128.5-14.1-143.8
					c-74.4-31.7,298.2-217.4,242.7,81.4c19.6-28,31.9-58.1,36.6-88.1s1.6-60-9.4-87.8"/>
				<path class="st0" d="M587.4,637.9c28.9,41.2,41.1,88.3,37.5,131s-22.9,81.2-57.2,105.2c-34.3,24-26-128.5,14.1-143.8
					c74.4-31.7-298.2-217.4-242.7,81.4c-19.6-28-31.9-58.1-36.6-88.1s-1.6-60,9.4-87.8"/>
			</g>
			<g transform="matrix(-7.608e-18 .041417 -.041417 -7.608e-18 454.23 45.102)">
				<path class="st0" d="M103.6,638C74.7,679.2,62.5,726.2,66,769c3.6,42.7,22.9,81.2,57.2,105.2s26-128.5-14.1-143.8
					c-74.4-31.7,298.2-217.4,242.7,81.4c19.6-28,31.9-58.1,36.6-88.1s1.6-60-9.4-87.8"/>
				<path class="st0" d="M587.4,638c28.9,41.2,41.1,88.3,37.5,131s-22.9,81.2-57.2,105.2s-26-128.5,14.1-143.8
					c74.4-31.7-298.2-217.4-242.7,81.4c-19.6-28-31.9-58.1-36.6-88.1s-1.6-60,9.4-87.8"/>
			</g>
			<g transform="matrix(2.2824e-17 -.041417 .041417 2.2824e-17 401.21 73.721)">
				<path class="st0" d="M103.6,637.9c-28.9,41.2-41.1,88.3-37.5,131c3.6,42.7,22.9,81.2,57.2,105.2s26-128.5-14.1-143.8
					c-74.4-31.7,298.2-217.4,242.7,81.4c19.6-28,31.9-58.1,36.6-88.1s1.6-60-9.4-87.8"/>
				<path class="st0" d="M587.4,637.9c28.9,41.2,41.1,88.3,37.5,131s-22.9,81.2-57.2,105.2s-26-128.5,14.1-143.8
					c74.4-31.7-298.2-217.4-242.7,81.4c-19.6-28-31.9-58.1-36.6-88.1s-1.6-60,9.4-87.8"/>
			</g>
		</g>
		<g transform="matrix(-9.4698 -3.7512 3.7512 -9.4698 4256.2 2259)">
			<g transform="matrix(-.041417 -5.072e-18 5.072e-18 -.041417 442.03 85.921)">
				<path class="st0" d="M103.6,638C74.7,679.2,62.5,726.2,66,769c3.6,42.7,22.9,81.2,57.2,105.2s26-128.5-14.1-143.8
					c-74.4-31.7,298.2-217.4,242.7,81.4c19.6-28,31.9-58.1,36.6-88.1c4.6-30,1.6-60-9.4-87.8"/>
				<path class="st0" d="M587.4,638c28.9,41.2,41.1,88.3,37.5,131s-22.9,81.2-57.2,105.2s-26-128.5,14.1-143.8
					c74.4-31.7-298.2-217.4-242.7,81.4c-19.6-28-31.9-58.1-36.6-88.1s-1.6-60,9.4-87.8"/>
			</g>
			<g transform="matrix(.041417 2.0288e-17 -2.0288e-17 .041417 413.41 32.903)">
				<path class="st0" d="M103.6,637.9c-28.9,41.2-41.1,88.3-37.5,131c3.6,42.7,22.9,81.2,57.2,105.2s26-128.5-14.1-143.8
					c-74.4-31.7,298.2-217.4,242.7,81.4c19.6-28,31.9-58.1,36.6-88.1s1.6-60-9.4-87.8"/>
				<path class="st0" d="M587.4,637.9c28.9,41.2,41.1,88.3,37.5,131s-22.9,81.2-57.2,105.2s-26-128.5,14.1-143.8
					c74.4-31.7-298.2-217.4-242.7,81.4c-19.6-28-31.9-58.1-36.6-88.1s-1.6-60,9.4-87.8"/>
			</g>
			<g transform="matrix(-7.608e-18 .041417 -.041417 -7.608e-18 454.23 45.102)">
				<path class="st0" d="M103.6,638C74.7,679.2,62.5,726.2,66,769c3.6,42.7,22.9,81.2,57.2,105.2s26-128.5-14.1-143.8
					c-74.4-31.7,298.2-217.4,242.7,81.4c19.6-28,31.9-58.1,36.6-88.1s1.6-60-9.4-87.8"/>
				<path class="st0" d="M587.4,638c28.9,41.2,41.1,88.3,37.5,131c-3.6,42.7-22.9,81.2-57.2,105.2s-26-128.5,14.1-143.8
					c74.4-31.7-298.2-217.4-242.7,81.4c-19.6-28-31.9-58.1-36.6-88.1s-1.6-60,9.4-87.8"/>
			</g>
			<g transform="matrix(2.2824e-17 -.041417 .041417 2.2824e-17 401.21 73.721)">
				<path class="st0" d="M103.6,637.9c-28.9,41.2-41.1,88.3-37.5,131c3.6,42.7,22.9,81.2,57.2,105.2s26-128.5-14.1-143.8
					c-74.4-31.7,298.2-217.4,242.7,81.4c19.6-28,31.9-58.1,36.6-88.1s1.6-60-9.4-87.8"/>
				<path class="st0" d="M587.4,637.9c28.9,41.2,41.1,88.3,37.5,131s-22.9,81.2-57.2,105.2s-26-128.5,14.1-143.8
					c74.4-31.7-298.2-217.4-242.7,81.4c-19.6-28-31.9-58.1-36.6-88.1s-1.6-60,9.4-87.8"/>
			</g>
		</g>
	</g>
</g>
</svg>
